PathFileType	4	(X/Y/Z)	/tmp/tmpjnq7zxqp/Me/MarkerData/jogging04_segment_0.trc
DataRate	CameraRate	NumFrames	NumMarkers	Units	OrigDataRate	OrigDataStartFrame	OrigNumFrames
100.091	100.091	9	39	m	100.091	275	1100
Frame#	Time	C7			CLAV			LANK			LASI			LBHD			LELB			LFHD			LFIN			LFRM			LHEE			LKNE			LPSI			LSHO			LTHI			LTIB			LTOE			LUPA			LWRA			LWRB			RANK			RASI			RBAK			RBHD			RELB			RFHD			RFIN			RFRM			RHEE			RKNE			RPSI			RSHO			RTHI			RTIB			RTOE			RUPA			RWRA			RWRB			STRN			T10		
		X1	Y1	Z1	X2	Y2	Z2	X3	Y3	Z3	X4	Y4	Z4	X5	Y5	Z5	X6	Y6	Z6	X7	Y7	Z7	X8	Y8	Z8	X9	Y9	Z9	X10	Y10	Z10	X11	Y11	Z11	X12	Y12	Z12	X13	Y13	Z13	X14	Y14	Z14	X15	Y15	Z15	X16	Y16	Z16	X17	Y17	Z17	X18	Y18	Z18	X19	Y19	Z19	X20	Y20	Z20	X21	Y21	Z21	X22	Y22	Z22	X23	Y23	Z23	X24	Y24	Z24	X25	Y25	Z25	X26	Y26	Z26	X27	Y27	Z27	X28	Y28	Z28	X29	Y29	Z29	X30	Y30	Z30	X31	Y31	Z31	X32	Y32	Z32	X33	Y33	Z33	X34	Y34	Z34	X35	Y35	Z35	X36	Y36	Z36	X37	Y37	Z37	X38	Y38	Z38	X39	Y39	Z39

276	2.7475	-0.165409	1.40502	0.0882086	-0.316665	1.29614	0.0854029	0.0190403	0.0986034	0.132664	-0.146761	0.936303	0.216208	-0.254049	1.51571	0.197662	-0.25609	0.991858	0.311966	-0.367915	1.58041	0.181402	-0.478404	1.11584	0.158946	-0.359854	0.991516	0.201804	0.0950896	0.0763677	0.0869467	-0.22103	0.414289	0.202783	-0.0169599	0.945547	0.0751414	-0.22098	1.34478	0.266191	-0.194991	0.605644	0.236307	-0.0705461	0.214207	0.178941	-0.14161	0.0629373	0.0560993	-0.252183	1.16467	0.328747	-0.382376	1.0772	0.140016	-0.431034	1.02656	0.153557	-0.067516	0.215678	-0.0456091	-0.158718	0.927425	-0.106214	-0.093877	1.3051	-0.0461223	-0.240295	1.52966	0.0500876	-0.106796	1.15058	-0.258854	-0.353304	1.58268	0.0522172	-0.28473	0.908159	-0.130164	-0.122214	1.06487	-0.240302	0.0121797	0.233543	0.0183912	-0.375989	0.483682	-0.0706552	-0.0211741	0.937004	0.0126733	-0.25758	1.39725	-0.0839759	-0.238682	0.776907	-0.117629	-0.273873	0.404849	-0.0902149	-0.160077	0.0770772	-0.00186443	-0.156535	1.22183	-0.222813	-0.192918	0.976351	-0.120186	-0.192043	0.928405	-0.173756	-0.312846	1.13245	0.0772993	-0.0687266	1.18422	0.059891
277	2.75749	-0.162663	1.40959	0.0877646	-0.316132	1.30357	0.0830933	0.0371265	0.101395	0.133339	-0.147855	0.940057	0.216461	-0.253087	1.52265	0.196333	-0.266673	1.00126	0.310988	-0.367268	1.58673	0.178698	-0.481746	1.13157	0.151861	-0.367484	1.00402	0.197702	0.114003	0.0806373	0.0875208	-0.205064	0.416061	0.201199	-0.0180101	0.952082	0.075671	-0.224368	1.353	0.265661	-0.185718	0.607783	0.23468	-0.0528003	0.21769	0.178545	-0.121671	0.0629901	0.0559353	-0.260378	1.17371	0.327748	-0.386251	1.09044	0.135757	-0.436662	1.04106	0.147832	-0.088727	0.204027	-0.0446754	-0.15126	0.938083	-0.10845	-0.0902793	1.31024	-0.0432869	-0.238008	1.53685	0.0487857	-0.0948186	1.16303	-0.258656	-0.351256	1.58924	0.0496574	-0.275183	0.91761	-0.139067	-0.110076	1.07672	-0.242103	-0.00811504	0.214786	0.0200166	-0.379664	0.493158	-0.0695947	-0.0213097	0.943434	0.0136447	-0.251872	1.40452	-0.0846366	-0.238706	0.784792	-0.11758	-0.281661	0.407301	-0.0893797	-0.193202	0.0737857	-0.00247899	-0.146231	1.2329	-0.223155	-0.184476	0.986246	-0.125371	-0.18106	0.938894	-0.179317	-0.312557	1.13995	0.0750709	-0.0684112	1.19026	0.063612
278	2.76748	-0.16037	1.41506	0.0877075	-0.315526	1.3118	0.0805682	0.0542526	0.105136	0.134231	-0.149459	0.944256	0.216666	-0.252112	1.53021	0.194688	-0.276404	1.01162	0.310219	-0.366503	1.59382	0.175835	-0.484505	1.1469	0.145	-0.373851	1.01685	0.193781	0.132442	0.0861161	0.0883981	-0.189706	0.419044	0.199437	-0.0193837	0.959394	0.0768725	-0.227807	1.36187	0.264776	-0.176471	0.610813	0.232931	-0.0358024	0.222188	0.177994	-0.101642	0.0630929	0.0558922	-0.268591	1.18363	0.326415	-0.389487	1.10378	0.131814	-0.441379	1.05537	0.142353	-0.111163	0.192113	-0.0440675	-0.149947	0.946779	-0.108154	-0.0871629	1.31625	-0.0406684	-0.235702	1.54457	0.0471593	-0.0833879	1.1755	-0.257899	-0.349216	1.59646	0.0469064	-0.266193	0.927625	-0.146987	-0.0983841	1.08877	-0.243179	-0.029996	0.195865	0.0216402	-0.381714	0.502251	-0.0685977	-0.0219075	0.950781	0.0148236	-0.246551	1.4122	-0.0852342	-0.238656	0.792912	-0.11778	-0.288541	0.409401	-0.0887632	-0.226888	0.0714852	-0.00256457	-0.136425	1.2441	-0.223125	-0.176302	0.996634	-0.129655	-0.170861	0.949775	-0.184069	-0.313802	1.14799	0.0724846	-0.0683537	1.1963	0.0673099
279	2.77747	-0.158861	1.42154	0.0881135	-0.315049	1.32067	0.0778813	0.0706066	0.109429	0.135337	-0.151548	0.948835	0.216883	-0.251276	1.53825	0.192674	-0.285392	1.0226	0.309591	-0.365627	1.60153	0.172817	-0.486718	1.16171	0.13837	-0.379601	1.02967	0.190218	0.150026	0.0925674	0.0894006	-0.17523	0.422977	0.197493	-0.0210279	0.967337	0.0786069	-0.23124	1.37119	0.263573	-0.167522	0.614705	0.23115	-0.0194165	0.227711	0.177527	-0.0815871	0.0631194	0.056025	-0.276603	1.19421	0.324812	-0.392114	1.11702	0.128178	-0.445107	1.06938	0.137044	-0.134588	0.18044	-0.0431838	-0.15272	0.9541	-0.106212	-0.0843823	1.32291	-0.0381785	-0.233483	1.55264	0.0452435	-0.0724413	1.18778	-0.256622	-0.347136	1.60416	0.0440654	-0.257886	0.938207	-0.153864	-0.087193	1.10088	-0.243261	-0.0535676	0.177048	0.0231158	-0.382107	0.510778	-0.0677637	-0.0227743	0.958671	0.0161288	-0.241553	1.42019	-0.0858552	-0.238539	0.801175	-0.118112	-0.294461	0.411166	-0.0883736	-0.260813	0.070378	-0.00206596	-0.127118	1.25522	-0.2227	-0.168661	1.00733	-0.133072	-0.161497	0.9609	-0.188033	-0.316182	1.1565	0.069595	-0.0686312	1.20226	0.0708299
280	2.78746	-0.15821	1.42864	0.0887835	-0.314878	1.32995	0.0750357	0.0862017	0.114252	0.136594	-0.153998	0.953786	0.216976	-0.250519	1.54661	0.190349	-0.293665	1.0339	0.309021	-0.364679	1.60961	0.169627	-0.488387	1.1759	0.131969	-0.384695	1.04231	0.186961	0.166464	0.0997518	0.0904487	-0.161263	0.427745	0.195492	-0.0230686	0.975571	0.0805821	-0.23477	1.38086	0.262118	-0.159013	0.619413	0.229341	-0.00344744	0.234104	0.177309	-0.0617213	0.0629735	0.0560304	-0.284221	1.20529	0.323135	-0.394149	1.13002	0.124756	-0.447912	1.08304	0.131993	-0.158808	0.169079	-0.0420439	-0.156781	0.961075	-0.103798	-0.0818429	1.32998	-0.0357193	-0.231441	1.56086	0.0432208	-0.0620117	1.19974	-0.254901	-0.345117	1.61216	0.0410754	-0.250296	0.949199	-0.159679	-0.07678	1.11276	-0.242817	-0.0786681	0.158564	0.0243301	-0.380893	0.518529	-0.0671874	-0.0239062	0.966889	0.0175555	-0.236711	1.42838	-0.0865728	-0.238346	0.809419	-0.118538	-0.299475	0.412518	-0.0881368	-0.294636	0.0705828	-0.0013289	-0.118284	1.26615	-0.221877	-0.160309	1.01727	-0.135309	-0.15294	0.972087	-0.191198	-0.319189	1.16546	0.0665228	-0.0692685	1.20832	0.0741147
281	2.79745	-0.15807	1.43592	0.0895279	-0.314948	1.33939	0.0720133	0.100974	0.11961	0.137998	-0.15678	0.959088	0.217056	-0.249539	1.555	0.188152	-0.301276	1.04537	0.308473	-0.363688	1.61788	0.166338	-0.489519	1.18935	0.12575	-0.388836	1.05449	0.18389	0.182076	0.107896	0.0916434	-0.147536	0.433371	0.19357	-0.0255112	0.983916	0.0825135	-0.238475	1.39071	0.260432	-0.151063	0.624856	0.227462	0.0118176	0.241021	0.177406	-0.0417503	0.062954	0.0560489	-0.291386	1.21669	0.321504	-0.395621	1.14262	0.12155	-0.449985	1.0961	0.127189	-0.183858	0.158096	-0.0411475	-0.161284	0.968076	-0.101184	-0.0795941	1.33724	-0.0332373	-0.229504	1.56907	0.0410688	-0.0521476	1.2113	-0.252806	-0.343163	1.62023	0.0379513	-0.243482	0.960363	-0.164706	-0.0671508	1.12429	-0.241894	-0.105138	0.14078	0.0252858	-0.378103	0.525283	-0.0668602	-0.0253874	0.975366	0.0191186	-0.232017	1.43662	-0.0873488	-0.238054	0.817498	-0.119005	-0.30349	0.413266	-0.0880721	-0.328172	0.0724852	-0.000248833	-0.109912	1.27682	-0.220759	-0.154511	1.02828	-0.138238	-0.145188	0.983244	-0.193601	-0.32246	1.17485	0.0632948	-0.0702023	1.21482	0.0772926
282	2.80745	-0.15801	1.44313	0.0902151	-0.315144	1.34879	0.0688336	0.11483	0.125471	0.139522	-0.15982	0.964701	0.217153	-0.248551	1.56332	0.185839	-0.308204	1.05689	0.307996	-0.362651	1.62611	0.162982	-0.490153	1.20195	0.119673	-0.392243	1.06629	0.181036	0.196976	0.11697	0.0929299	-0.134233	0.439726	0.191864	-0.0283321	0.992343	0.0841967	-0.242297	1.40065	0.258501	-0.143977	0.630768	0.225821	0.0261514	0.248355	0.177525	-0.0217149	0.0629432	0.0562341	-0.298057	1.22824	0.319874	-0.396586	1.15467	0.118643	-0.451457	1.10852	0.122697	-0.209521	0.147804	-0.040492	-0.166329	0.97483	-0.0984036	-0.0776725	1.3445	-0.0307203	-0.227586	1.57713	0.0387603	-0.0428446	1.22238	-0.250357	-0.341184	1.62818	0.0347643	-0.237489	0.971529	-0.16906	-0.0582569	1.13539	-0.240524	-0.132565	0.123979	0.0259258	-0.373774	0.530786	-0.0666239	-0.027323	0.984056	0.0206692	-0.227611	1.4447	-0.0880368	-0.237775	0.825328	-0.119489	-0.306583	0.413312	-0.0881537	-0.361007	0.076567	0.00152847	-0.101982	1.28717	-0.21944	-0.149393	1.03918	-0.140366	-0.138253	0.994225	-0.195263	-0.325706	1.18463	0.0599796	-0.0714157	1.22192	0.0801756
283	2.81744	-0.157908	1.45015	0.0906731	-0.315361	1.35799	0.0655797	0.127902	0.131761	0.140972	-0.162965	0.970631	0.217231	-0.247594	1.57137	0.183324	-0.314438	1.06829	0.307622	-0.361559	1.6341	0.15954	-0.490319	1.2136	0.113736	-0.394997	1.07756	0.178457	0.210778	0.126575	0.0941485	-0.121606	0.446549	0.190491	-0.0315917	1.00075	0.0855431	-0.246021	1.41064	0.256295	-0.137709	0.636877	0.224465	0.0397155	0.256035	0.177612	-0.00175085	0.0628345	0.0565791	-0.30414	1.23975	0.318114	-0.397075	1.16594	0.115955	-0.452372	1.11996	0.118452	-0.235428	0.138569	-0.0398953	-0.170843	0.981515	-0.0960686	-0.0760054	1.35155	-0.0281561	-0.225686	1.58481	0.0362997	-0.0341074	1.2329	-0.247583	-0.339223	1.6358	0.0314848	-0.232232	0.982506	-0.172793	-0.0500897	1.14598	-0.238717	-0.160645	0.108208	0.0261804	-0.368043	0.534897	-0.066321	-0.0297718	0.992822	0.0220618	-0.223319	1.45255	-0.0885681	-0.237586	0.832749	-0.119933	-0.308952	0.412653	-0.0882979	-0.392425	0.0825254	0.00390081	-0.0945225	1.29717	-0.217968	-0.144551	1.04959	-0.141448	-0.132088	1.00483	-0.196204	-0.328428	1.19477	0.0568261	-0.0729735	1.22951	0.0828172
284	2.82743	-0.157706	1.45685	0.0908394	-0.315556	1.3669	0.0623441	0.140391	0.138198	0.14203	-0.166168	0.976766	0.217274	-0.246589	1.57894	0.180643	-0.319961	1.07935	0.307353	-0.360396	1.64161	0.15601	-0.489997	1.22424	0.108008	-0.397133	1.08807	0.176181	0.223337	0.136687	0.0951961	-0.109763	0.453554	0.189474	-0.0355381	1.009	0.0865842	-0.249514	1.42031	0.253726	-0.132102	0.642963	0.223363	0.052572	0.263815	0.17802	0.0181435	0.0622034	0.0570566	-0.309562	1.25093	0.316025	-0.397273	1.17618	0.113127	-0.452753	1.13031	0.114519	-0.261197	0.130825	-0.0393043	-0.17303	0.988281	-0.0948129	-0.0745375	1.35823	-0.0255535	-0.223812	1.59191	0.0337645	-0.0258666	1.24271	-0.244434	-0.337279	1.64289	0.028114	-0.227567	0.993152	-0.1758	-0.0426124	1.15593	-0.236548	-0.188738	0.0941725	0.0261595	-0.361194	0.537519	-0.0659146	-0.0327169	1.00144	0.023227	-0.219313	1.46	-0.0890325	-0.237486	0.839526	-0.120316	-0.310625	0.41137	-0.0884396	-0.42199	0.0903916	0.00677256	-0.0875524	1.30669	-0.216337	-0.140284	1.05958	-0.141903	-0.126588	1.01488	-0.196519	-0.330772	1.20496	0.0537641	-0.0752181	1.23715	0.0853128
